<?xml version="1.0" encoding="UTF-8" standalone="no"?>
<!-- Created with Inkscape (http://www.inkscape.org/) -->

<svg
   width="210mm"
   height="297mm"
   viewBox="0 0 210 297"
   version="1.1"
   id="svg1302"
   xml:space="preserve"
   inkscape:version="1.4 (86a8ad7, 2024-10-11)"
   sodipodi:docname="Shop_stand_50R.svg"
   xmlns:inkscape="http://www.inkscape.org/namespaces/inkscape"
   xmlns:sodipodi="http://sodipodi.sourceforge.net/DTD/sodipodi-0.dtd"
   xmlns="http://www.w3.org/2000/svg"
   xmlns:svg="http://www.w3.org/2000/svg"><sodipodi:namedview
     id="namedview1304"
     pagecolor="#ffffff"
     bordercolor="#000000"
     borderopacity="0.25"
     inkscape:showpageshadow="2"
     inkscape:pageopacity="0.0"
     inkscape:pagecheckerboard="0"
     inkscape:deskcolor="#d1d1d1"
     inkscape:document-units="mm"
     showgrid="true"
     inkscape:zoom="4.5437126"
     inkscape:cx="90.014496"
     inkscape:cy="94.416183"
     inkscape:window-width="1833"
     inkscape:window-height="1204"
     inkscape:window-x="1319"
     inkscape:window-y="1658"
     inkscape:window-maximized="0"
     inkscape:current-layer="layer2"><inkscape:grid
       id="grid4"
       units="mm"
       originx="0"
       originy="0"
       spacingx="2.4999999"
       spacingy="2.5000001"
       empcolor="#0099e5"
       empopacity="0.30196078"
       color="#0099e5"
       opacity="0.14901961"
       empspacing="10"
       enabled="true"
       visible="true" /></sodipodi:namedview><defs
     id="defs1299"><clipPath
       clipPathUnits="userSpaceOnUse"
       id="clipPath7128"><g
         id="g7132"
         transform="matrix(12.250001,0,0,-12.250001,-206.1178,111.33193)"><path
           d="M -5.2560494,-9.0937607 H 43.337908 V 59.631951 H -5.2560494 Z"
           id="path7130"
           style="stroke-width:0.0816327" /></g></clipPath><clipPath
       clipPathUnits="userSpaceOnUse"
       id="clipPath7134"><g
         id="g7138"
         transform="matrix(12.250001,0,0,-12.250001,-206.93269,94.542327)"><path
           d="M -5.2560494,-9.0937607 H 43.337908 V 59.631951 H -5.2560494 Z"
           id="path7136"
           style="stroke-width:0.0816327" /></g></clipPath><clipPath
       clipPathUnits="userSpaceOnUse"
       id="clipPath7140"><g
         id="g7144"
         transform="matrix(12.250001,0,0,-12.250001,-220.16999,93.480827)"><path
           d="M -5.2560494,-9.0937607 H 43.337908 V 59.631951 H -5.2560494 Z"
           id="path7142"
           style="stroke-width:0.0816327" /></g></clipPath><clipPath
       clipPathUnits="userSpaceOnUse"
       id="clipPath7146"><g
         id="g7150"
         transform="matrix(12.250001,0,0,-12.250001,-201.61929,450.38853)"><path
           d="M -5.2560494,-9.0937607 H 43.337908 V 59.631951 H -5.2560494 Z"
           id="path7148"
           style="stroke-width:0.0816327" /></g></clipPath><clipPath
       clipPathUnits="userSpaceOnUse"
       id="clipPath7152"><g
         id="g7156"
         transform="matrix(12.250001,0,0,-12.250001,-128.09629,441.41783)"><path
           d="M -5.2560494,-9.0937607 H 43.337908 V 59.631951 H -5.2560494 Z"
           id="path7154"
           style="stroke-width:0.0816327" /></g></clipPath><clipPath
       clipPathUnits="userSpaceOnUse"
       id="clipPath7158"><g
         id="g7162"
         transform="matrix(12.250001,0,0,-12.250001,-236.66709,392.69513)"><path
           d="M -5.2560494,-9.0937607 H 43.337908 V 59.631951 H -5.2560494 Z"
           id="path7160"
           style="stroke-width:0.0816327" /></g></clipPath><clipPath
       clipPathUnits="userSpaceOnUse"
       id="clipPath7164"><g
         id="g7168"
         transform="matrix(12.250001,0,0,-12.250001,-234.87709,381.81043)"><path
           d="M -5.2560494,-9.0937607 H 43.337908 V 59.631951 H -5.2560494 Z"
           id="path7166"
           style="stroke-width:0.0816327" /></g></clipPath><clipPath
       clipPathUnits="userSpaceOnUse"
       id="clipPath7170"><g
         id="g7174"
         transform="matrix(12.250001,0,0,-12.250001,-325.10459,387.69513)"><path
           d="M -5.2560494,-9.0937607 H 43.337908 V 59.631951 H -5.2560494 Z"
           id="path7172"
           style="stroke-width:0.0816327" /></g></clipPath><clipPath
       clipPathUnits="userSpaceOnUse"
       id="clipPath7176"><g
         id="g7180"
         transform="matrix(12.250001,0,0,-12.250001,-248.8331,304.28202)"><path
           d="M -5.2560494,-9.0937607 H 43.337908 V 59.631951 H -5.2560494 Z"
           id="path7178"
           style="stroke-width:0.0816327" /></g></clipPath><clipPath
       clipPathUnits="userSpaceOnUse"
       id="clipPath7182"><g
         id="g7186"
         transform="matrix(12.250001,0,0,-12.250001,-255.71889,297.89633)"><path
           d="M -5.2560494,-9.0937607 H 43.337908 V 59.631951 H -5.2560494 Z"
           id="path7184"
           style="stroke-width:0.0816327" /></g></clipPath><clipPath
       clipPathUnits="userSpaceOnUse"
       id="clipPath7188"><g
         id="g7192"
         transform="matrix(12.250001,0,0,-12.250001,-249.57339,283.98372)"><path
           d="M -5.2560494,-9.0937607 H 43.337908 V 59.631951 H -5.2560494 Z"
           id="path7190"
           style="stroke-width:0.0816327" /></g></clipPath><clipPath
       clipPathUnits="userSpaceOnUse"
       id="clipPath7194"><g
         id="g7198"
         transform="matrix(12.250001,0,0,-12.250001,-229.64369,264.12483)"><path
           d="M -5.2560494,-9.0937607 H 43.337908 V 59.631951 H -5.2560494 Z"
           id="path7196"
           style="stroke-width:0.0816327" /></g></clipPath><clipPath
       clipPathUnits="userSpaceOnUse"
       id="clipPath7200"><g
         id="g7204"
         transform="matrix(12.250001,0,0,-12.250001,-246.95909,271.16683)"><path
           d="M -5.2560494,-9.0937607 H 43.337908 V 59.631951 H -5.2560494 Z"
           id="path7202"
           style="stroke-width:0.0816327" /></g></clipPath><clipPath
       clipPathUnits="userSpaceOnUse"
       id="clipPath7206"><g
         id="g7210"
         transform="matrix(12.250001,0,0,-12.250001,-318.8107,256.76893)"><path
           d="M -5.2560494,-9.0937607 H 43.337908 V 59.631951 H -5.2560494 Z"
           id="path7208"
           style="stroke-width:0.0816327" /></g></clipPath><clipPath
       clipPathUnits="userSpaceOnUse"
       id="clipPath7212"><g
         id="g7216"
         transform="matrix(12.250001,0,0,-12.250001,-298.8273,252.51352)"><path
           d="M -5.2560494,-9.0937607 H 43.337908 V 59.631951 H -5.2560494 Z"
           id="path7214"
           style="stroke-width:0.0816327" /></g></clipPath><clipPath
       clipPathUnits="userSpaceOnUse"
       id="clipPath7218"><g
         id="g7222"
         transform="matrix(12.250001,0,0,-12.250001,-220.46149,235.84503)"><path
           d="M -5.2560494,-9.0937607 H 43.337908 V 59.631951 H -5.2560494 Z"
           id="path7220"
           style="stroke-width:0.0816327" /></g></clipPath><clipPath
       clipPathUnits="userSpaceOnUse"
       id="clipPath7224"><g
         id="g7228"
         transform="matrix(12.250001,0,0,-12.250001,-206.23159,226.78602)"><path
           d="M -5.2560494,-9.0937607 H 43.337908 V 59.631951 H -5.2560494 Z"
           id="path7226"
           style="stroke-width:0.0816327" /></g></clipPath><clipPath
       clipPathUnits="userSpaceOnUse"
       id="clipPath7230"><g
         id="g7234"
         transform="matrix(12.250001,0,0,-12.250001,-173.01529,223.98082)"><path
           d="M -5.2560494,-9.0937607 H 43.337908 V 59.631951 H -5.2560494 Z"
           id="path7232"
           style="stroke-width:0.0816327" /></g></clipPath><clipPath
       clipPathUnits="userSpaceOnUse"
       id="clipPath7236"><g
         id="g7240"
         transform="matrix(12.250001,0,0,-12.250001,-223.8038,154.25283)"><path
           d="M -5.2560494,-9.0937607 H 43.337908 V 59.631951 H -5.2560494 Z"
           id="path7238"
           style="stroke-width:0.0816327" /></g></clipPath><clipPath
       clipPathUnits="userSpaceOnUse"
       id="clipPath7242"><g
         id="g7246"
         transform="matrix(12.250001,0,0,-12.250001,-174.40199,142.43052)"><path
           d="M -5.2560494,-9.0937607 H 43.337908 V 59.631951 H -5.2560494 Z"
           id="path7244"
           style="stroke-width:0.0816327" /></g></clipPath><clipPath
       clipPathUnits="userSpaceOnUse"
       id="clipPath7248"><g
         id="g7252"
         transform="matrix(12.250001,0,0,-12.250001,-206.02549,143.70932)"><path
           d="M -5.2560494,-9.0937607 H 43.337908 V 59.631951 H -5.2560494 Z"
           id="path7250"
           style="stroke-width:0.0816327" /></g></clipPath><clipPath
       clipPathUnits="userSpaceOnUse"
       id="clipPath7254"><g
         id="g7258"
         transform="matrix(12.250001,0,0,-12.250001,-225.4103,138.22442)"><path
           d="M -5.2560494,-9.0937607 H 43.337908 V 59.631951 H -5.2560494 Z"
           id="path7256"
           style="stroke-width:0.0816327" /></g></clipPath><clipPath
       clipPathUnits="userSpaceOnUse"
       id="clipPath7260"><g
         id="g7264"
         transform="matrix(12.250001,0,0,-12.250001,-244.5548,139.76982)"><path
           d="M -5.2560494,-9.0937607 H 43.337908 V 59.631951 H -5.2560494 Z"
           id="path7262"
           style="stroke-width:0.0816327" /></g></clipPath><clipPath
       clipPathUnits="userSpaceOnUse"
       id="clipPath7266"><g
         id="g7270"
         transform="matrix(12.250001,0,0,-12.250001,-188.08169,125.36703)"><path
           d="M -5.2560494,-9.0937607 H 43.337908 V 59.631951 H -5.2560494 Z"
           id="path7268"
           style="stroke-width:0.0816327" /></g></clipPath><clipPath
       clipPathUnits="userSpaceOnUse"
       id="clipPath7272"><g
         id="g7276"
         transform="matrix(12.250001,0,0,-12.250001,-228.1998,122.56383)"><path
           d="M -5.2560494,-9.0937607 H 43.337908 V 59.631951 H -5.2560494 Z"
           id="path7274"
           style="stroke-width:0.0816327" /></g></clipPath><clipPath
       clipPathUnits="userSpaceOnUse"
       id="clipPath7278"><g
         id="g7282"
         transform="matrix(12.250001,0,0,-12.250001,-188.96059,111.69713)"><path
           d="M -5.2560494,-9.0937607 H 43.337908 V 59.631951 H -5.2560494 Z"
           id="path7280"
           style="stroke-width:0.0816327" /></g></clipPath><clipPath
       clipPathUnits="userSpaceOnUse"
       id="clipPath7284"><g
         id="g7288"
         transform="matrix(12.250001,0,0,-12.250001,-229.85609,108.87683)"><path
           d="M -5.2560494,-9.0937607 H 43.337908 V 59.631951 H -5.2560494 Z"
           id="path7286"
           style="stroke-width:0.0816327" /></g></clipPath><clipPath
       clipPathUnits="userSpaceOnUse"
       id="clipPath7290"><g
         id="g7294"
         transform="matrix(12.250001,0,0,-12.250001,-213.4513,107.66493)"><path
           d="M -5.2560494,-9.0937607 H 43.337908 V 59.631951 H -5.2560494 Z"
           id="path7292"
           style="stroke-width:0.0816327" /></g></clipPath><clipPath
       clipPathUnits="userSpaceOnUse"
       id="clipPath7296"><g
         id="g7300"
         transform="matrix(12.250001,0,0,-12.250001,-123.87019,58.861228)"><path
           d="M -5.2560494,-9.0937607 H 43.337908 V 59.631951 H -5.2560494 Z"
           id="path7298"
           style="stroke-width:0.0816327" /></g></clipPath><clipPath
       clipPathUnits="userSpaceOnUse"
       id="clipPath7302"><g
         id="g7306"
         transform="matrix(12.250001,0,0,-12.250001,-318.59679,554.94613)"><path
           d="M -5.2560494,-9.0937607 H 43.337908 V 59.631951 H -5.2560494 Z"
           id="path7304"
           style="stroke-width:0.0816327" /></g></clipPath><clipPath
       clipPathUnits="userSpaceOnUse"
       id="clipPath7308"><g
         id="g7312"
         transform="matrix(12.250001,0,0,-12.250001,-255.82919,545.72743)"><path
           d="M -5.2560494,-9.0937607 H 43.337908 V 59.631951 H -5.2560494 Z"
           id="path7310"
           style="stroke-width:0.0816327" /></g></clipPath><clipPath
       clipPathUnits="userSpaceOnUse"
       id="clipPath7314"><g
         id="g7318"
         transform="matrix(12.250001,0,0,-12.250001,-294.2267,542.92172)"><path
           d="M -5.2560494,-9.0937607 H 43.337908 V 59.631951 H -5.2560494 Z"
           id="path7316"
           style="stroke-width:0.0816327" /></g></clipPath><clipPath
       clipPathUnits="userSpaceOnUse"
       id="clipPath7320"><g
         id="g7324"
         transform="matrix(12.250001,0,0,-12.250001,-272.16419,542.92172)"><path
           d="M -5.2560494,-9.0937607 H 43.337908 V 59.631951 H -5.2560494 Z"
           id="path7322"
           style="stroke-width:0.0816327" /></g></clipPath><clipPath
       clipPathUnits="userSpaceOnUse"
       id="clipPath7326"><g
         id="g7330"
         transform="matrix(12.250001,0,0,-12.250001,-222.67879,542.92172)"><path
           d="M -5.2560494,-9.0937607 H 43.337908 V 59.631951 H -5.2560494 Z"
           id="path7328"
           style="stroke-width:0.0816327" /></g></clipPath><clipPath
       clipPathUnits="userSpaceOnUse"
       id="clipPath7332"><g
         id="g7336"
         transform="matrix(12.250001,0,0,-12.250001,-208.51229,545.72743)"><path
           d="M -5.2560494,-9.0937607 H 43.337908 V 59.631951 H -5.2560494 Z"
           id="path7334"
           style="stroke-width:0.0816327" /></g></clipPath><clipPath
       clipPathUnits="userSpaceOnUse"
       id="clipPath7338"><g
         id="g7342"
         transform="matrix(12.250001,0,0,-12.250001,-187.19489,545.72743)"><path
           d="M -5.2560494,-9.0937607 H 43.337908 V 59.631951 H -5.2560494 Z"
           id="path7340"
           style="stroke-width:0.0816327" /></g></clipPath><clipPath
       clipPathUnits="userSpaceOnUse"
       id="clipPath7344"><g
         id="g7348"
         transform="matrix(12.250001,0,0,-12.250001,-158.21549,542.99402)"><path
           d="M -5.2560494,-9.0937607 H 43.337908 V 59.631951 H -5.2560494 Z"
           id="path7346"
           style="stroke-width:0.0816327" /></g></clipPath><clipPath
       clipPathUnits="userSpaceOnUse"
       id="clipPath7350"><g
         id="g7354"
         transform="matrix(12.250001,0,0,-12.250001,-154.34,543.92273)"><path
           d="M -5.2560494,-9.0937607 H 43.337908 V 59.631951 H -5.2560494 Z"
           id="path7352"
           style="stroke-width:0.0816327" /></g></clipPath><clipPath
       clipPathUnits="userSpaceOnUse"
       id="clipPath7356"><g
         id="g7360"
         transform="matrix(12.250001,0,0,-12.250001,-363.51179,533.11703)"><path
           d="M -5.2560494,-9.0937607 H 43.337908 V 59.631951 H -5.2560494 Z"
           id="path7358"
           style="stroke-width:0.0816327" /></g></clipPath><clipPath
       clipPathUnits="userSpaceOnUse"
       id="clipPath7362"><g
         id="g7366"
         transform="matrix(12.250001,0,0,-12.250001,-284.03329,502.83482)"><path
           d="M -5.2560494,-9.0937607 H 43.337908 V 59.631951 H -5.2560494 Z"
           id="path7364"
           style="stroke-width:0.0816327" /></g></clipPath><clipPath
       clipPathUnits="userSpaceOnUse"
       id="clipPath7368"><g
         id="g7372"
         transform="matrix(12.250001,0,0,-12.250001,-291.50209,502.81723)"><path
           d="M -5.2560494,-9.0937607 H 43.337908 V 59.631951 H -5.2560494 Z"
           id="path7370"
           style="stroke-width:0.0816327" /></g></clipPath><clipPath
       clipPathUnits="userSpaceOnUse"
       id="clipPath7374"><g
         id="g7378"
         transform="matrix(12.250001,0,0,-12.250001,-279.1163,502.59263)"><path
           d="M -5.2560494,-9.0937607 H 43.337908 V 59.631951 H -5.2560494 Z"
           id="path7376"
           style="stroke-width:0.0816327" /></g></clipPath><clipPath
       clipPathUnits="userSpaceOnUse"
       id="clipPath7380"><g
         id="g7384"
         transform="matrix(12.250001,0,0,-12.250001,-330.10659,519.75673)"><path
           d="M -5.2560494,-9.0937607 H 43.337908 V 59.631951 H -5.2560494 Z"
           id="path7382"
           style="stroke-width:0.0816327" /></g></clipPath><clipPath
       clipPathUnits="userSpaceOnUse"
       id="clipPath7386"><g
         id="g7390"
         transform="matrix(12.250001,0,0,-12.250001,-220.609,519.81433)"><path
           d="M -5.2560494,-9.0937607 H 43.337908 V 59.631951 H -5.2560494 Z"
           id="path7388"
           style="stroke-width:0.0816327" /></g></clipPath><clipPath
       clipPathUnits="userSpaceOnUse"
       id="clipPath7392"><g
         id="g7396"
         transform="matrix(12.250001,0,0,-12.250001,-162.49079,533.11703)"><path
           d="M -5.2560494,-9.0937607 H 43.337908 V 59.631951 H -5.2560494 Z"
           id="path7394"
           style="stroke-width:0.0816327" /></g></clipPath><clipPath
       clipPathUnits="userSpaceOnUse"
       id="clipPath7398"><g
         id="g7402"
         transform="matrix(12.250001,0,0,-12.250001,-145.193,522.56923)"><path
           d="M -5.2560494,-9.0937607 H 43.337908 V 59.631951 H -5.2560494 Z"
           id="path7400"
           style="stroke-width:0.0816327" /></g></clipPath><clipPath
       clipPathUnits="userSpaceOnUse"
       id="clipPath7404"><g
         id="g7408"
         transform="matrix(12.250001,0,0,-12.250001,-107.97419,533.23713)"><path
           d="M -5.2560494,-9.0937607 H 43.337908 V 59.631951 H -5.2560494 Z"
           id="path7406"
           style="stroke-width:0.0816327" /></g></clipPath></defs><g
     inkscape:label="Layer 1"
     inkscape:groupmode="layer"
     id="layer1" /><g
     inkscape:groupmode="layer"
     id="layer2"
     inkscape:label="Layer 2"><path
       id="rect2"
       style="fill:none;fill-rule:evenodd;stroke:#0000ff;stroke-width:0.01;stroke-dasharray:none;stroke-opacity:1"
       d="m 1.6324585,0.8175212 c -0.5685623,0 -1.02629395,0.4460582 -1.02629395,0.999939 v 2.1073649 h -0.009819 V 50.673393 l 11.08872945,-0.0016 v 1.990576 h 14.999601 v -1.990576 h 0.702283 l 11.09803,0.0016 V 6.6290528 c 0.0059,-0.043412 0.0098,-0.087271 0.0098,-0.1322917 V 1.8174602 c 0,-0.5538808 -0.457732,-0.999939 -1.026294,-0.999939 z"
       sodipodi:nodetypes="ssccccccccccssss" /></g></svg>
